<?xml version="1.0" encoding="UTF-8"?>
<svg xmlns="http://www.w3.org/2000/svg" width="16" height="16" viewBox="130 170 300 300">
  <path
    fill="none"
    stroke="white"
    stroke-width="12"
    stroke-linecap="round"
    stroke-linejoin="round"
    d="M 237 193 C 252.125 183.875 271 181.5 288 186 C 308.5 191.5 325.625 207.5 332.75 227.375 C 344.5 228.625 355.75 234.5 363.125 243.875 C 371 253.125 374.5 266 373 278 C 370.25 299.25 350.625 317.25 329 316.875 C 307.125 316.875 285.25 317 263.25 316.75 C 265.875 314.125 269.375 312.625 271.75 309.875 C 273.5 308.125 275 305.25 278 305.75 C 295.375 305.75 312.75 305.75 330 305.75 C 338.625 305.875 346.75 301.625 352.875 295.75 C 360 289 363.125 278.625 362.375 269 C 361.25 255 350.5 242.375 337 239 C 333.125 237.875 329.125 238.5 325.25 237.75 C 324.125 235.375 323.625 232.625 322.75 230.125 C 317.5 215.5 305.125 203.75 290.625 198.25 C 279.625 193.875 267.125 193.75 255.75 196.625 C 241 200.625 227.5 210.5 221.25 224.625 C 223.625 227.125 226.125 229.75 227.375 233 C 227.75 236.25 224.125 238.25 221.375 237.625 C 218.875 235.125 217.25 231.75 214 230 C 206.875 225.25 196.75 225.5 189.625 230.5 C 185 233.5 182.25 238.5 180.625 243.625 C 171.625 244 162.5 247.75 157 255.125 C 152.375 261 150 268.625 150.75 276.125 C 151.5 292.375 166.75 306.375 183 305.75 C 201 305.625 219 305.75 237 305.625 C 243.875 305.75 250.875 303.625 256.125 299.125 C 263.625 293.25 268 283.5 266.75 274 C 265.75 266.875 261 260.75 254.875 257.25 C 250.375 254.625 245 255.5 240 254.75 C 237.75 254.5 236.125 252.25 235.75 250 C 235.5 247 238.125 244.5 241 244 C 249.5 243 258.75 244.875 265.375 250.5 C 274.625 257.5 279.5 269.625 278.25 281 C 276.625 300.25 259.25 316.25 240 316.75 C 222.375 317 204.625 316.75 187 316.875 C 182.625 316.875 178.25 317 173.875 316 C 160.25 313 148.375 303 143 290 C 138.875 280.625 138.5 269.625 142 260 C 146.375 247.875 156.75 237.5 169.625 234.5 C 172 233.875 175.25 234.125 176.625 231.625 C 180.875 225 187.625 220 195.375 218.5 C 200.875 216.875 206.75 217.875 212.125 219.375 C 217.625 208.375 226.375 199 237 193 Z"
  />
</svg>
